<svg xmlns="http://www.w3.org/2000/svg" version="1.1" xmlns:xlink="http://www.w3.org/1999/xlink" xmlns:svgjs="http://svgjs.dev/svgjs" width="1000" height="1000" viewBox="0 0 1000 1000"><g transform="matrix(1,0,0,1,-0.14221556886212738,-0.14221556886229791)"><svg viewBox="0 0 334 334" data-background-color="#ffffff" preserveAspectRatio="xMidYMid meet" height="1000" width="1000" xmlns="http://www.w3.org/2000/svg" xmlns:xlink="http://www.w3.org/1999/xlink"><g id="tight-bounds" transform="matrix(1,0,0,1,0.04749999999998522,0.04750000000001364)"><svg viewBox="0 0 333.90454557049503 333.90454557049503" height="333.90454557049503" width="333.90454557049503"><g><svg></svg></g><g><svg viewBox="0 0 333.90454557049503 333.90454557049503" height="333.90454557049503" width="333.90454557049503"><g><path d="M0 166.952c0-92.205 74.747-166.952 166.952-166.952 92.205 0 166.952 74.747 166.953 166.952 0 92.205-74.747 166.952-166.953 166.953-92.205 0-166.952-74.747-166.952-166.953zM166.952 316.63c82.665 0 149.677-67.013 149.678-149.678 0-82.665-67.013-149.677-149.678-149.677-82.665 0-149.677 67.013-149.677 149.677 0 82.665 67.013 149.677 149.677 149.678z" data-fill-palette-color="tertiary" fill="#ffffff" stroke="transparent"></path><ellipse rx="160.27418187383762" ry="160.27418187383762" cx="166.95227278524752" cy="166.95227278524752" fill="#ffffff" stroke="transparent" stroke-width="0" fill-opacity="1" data-fill-palette-color="tertiary"></ellipse></g><g transform="matrix(1,0,0,1,72.15792847617877,71.17305217166896)"><svg viewBox="0 0 189.5886886181375 191.55844122715712" height="191.55844122715712" width="189.5886886181375"><g><svg viewBox="0 0 189.5886886181375 191.55844122715712" height="191.55844122715712" width="189.5886886181375"><g><svg viewBox="0 0 189.5886886181375 191.55844122715712" height="191.55844122715712" width="189.5886886181375"><g><svg viewBox="0 0 189.5886886181375 191.55844122715712" height="191.55844122715712" width="189.5886886181375"><g id="textblocktransform"><svg viewBox="0 0 189.5886886181375 191.55844122715712" height="191.55844122715712" width="189.5886886181375" id="textblock"><g><svg viewBox="0 0 189.5886886181375 191.55844122715712" height="191.55844122715712" width="189.5886886181375"><g transform="matrix(1,0,0,1,0,0)"><svg width="189.5886886181375" viewBox="1 -38.900001525878906 38.5 38.900001525878906" height="191.55844122715712" data-palette-color="#ffffff"><path d="M1 0L1-8.2 3.5-8.2 3.5-30.65 1-30.65 1-38.9 21.3-38.9Q29.65-38.9 34.58-34.33 39.5-29.75 39.5-19.45L39.5-19.45Q39.5-9.15 34.58-4.58 29.65 0 21.3 0L21.3 0 1 0ZM17.5-8.2L20.4-8.2Q22.1-8.2 22.95-9.1 23.8-10 23.8-11.9L23.8-11.9 23.8-27Q23.8-30.7 20.4-30.7L20.4-30.7 17.5-30.7 17.5-8.2Z" opacity="1" transform="matrix(1,0,0,1,0,0)" fill="#000000" class="wordmark-text-0" data-fill-palette-color="quaternary" id="text-0"></path></svg></g></svg></g></svg></g></svg></g><g></g></svg></g></svg></g></svg></g></svg></g><defs></defs></svg><rect width="333.90454557049503" height="333.90454557049503" fill="none" stroke="none" visibility="hidden"></rect></g></svg></g></svg>